<?xml version="1.0" standalone="no"?>
<!DOCTYPE svg PUBLIC "-//W3C//DTD SVG 20010904//EN"
 "http://www.w3.org/TR/2001/REC-SVG-20010904/DTD/svg10.dtd">
<svg version="1.0" xmlns="http://www.w3.org/2000/svg"
 width="612.000000pt" height="408.000000pt" viewBox="0 0 612.000000 408.000000"
 preserveAspectRatio="xMidYMid meet">

<g transform="translate(0.000000,408.000000) scale(0.100000,-0.100000)"
fill="#000000" stroke="none">
<path d="M43 4073 c-7 -2 -13 -12 -13 -20 0 -9 -6 -13 -15 -9 -12 4 -15 -6
-15 -62 l0 -67 26 33 c14 18 45 43 67 55 l42 22 2900 0 2900 0 44 -25 c25 -14
54 -41 65 -60 21 -35 21 -38 21 -1890 l0 -1855 -23 -42 c-12 -24 -41 -55 -64
-70 l-42 -28 -2884 -3 c-2081 -1 -2896 1 -2926 9 -27 7 -56 26 -83 55 l-43 44
0 -61 c0 -51 4 -64 23 -80 21 -18 102 -18 3006 -19 l2985 0 53 56 53 55 0
1935 0 1935 -52 49 -53 49 -2980 0 c-1639 0 -2986 -3 -2992 -6z"/>
<path d="M1613 2792 c-45 -158 -157 -541 -248 -852 -92 -311 -186 -631 -210
-712 -23 -81 -40 -149 -37 -153 3 -3 119 -5 259 -5 194 0 255 3 257 13 5 14
61 231 76 295 l11 42 349 0 349 0 14 -52 c9 -29 30 -107 49 -173 l33 -120 258
-3 c141 -1 257 0 257 2 0 3 -57 200 -126 438 -69 238 -180 618 -245 843 -66
226 -140 481 -166 568 l-46 157 -376 0 -376 0 -82 -288z m581 -553 l112 -419
-234 0 c-193 0 -233 2 -229 14 5 13 139 517 193 726 29 114 35 131 42 111 2
-7 55 -201 116 -432z"/>
<path d="M3368 3065 c-104 -28 -170 -85 -217 -185 l-26 -55 -3 -715 c-3 -640
-1 -721 13 -777 30 -112 106 -193 222 -236 54 -20 80 -22 389 -25 l331 -4 50
-161 51 -162 148 -3 c81 -1 153 -1 160 2 8 3 -5 55 -42 167 -29 89 -51 166
-48 170 3 5 13 9 22 9 33 0 137 58 174 96 20 22 50 66 65 99 l28 60 0 740 0
740 -27 57 c-35 74 -103 141 -176 170 -57 23 -60 23 -562 25 -392 1 -516 -1
-552 -12z m857 -905 c0 -300 -2 -558 -5 -574 -4 -26 -11 -13 -50 90 l-45 119
-133 3 -134 3 8 -23 c38 -120 104 -330 104 -334 0 -2 -88 -4 -195 -4 l-195 0
0 628 c0 346 3 632 7 635 4 4 149 6 322 5 l316 -3 0 -545z"/>
</g>
</svg>
